Coordinates
version=1
nRows=6
nColumns=36
inDegrees=yes

Units are S.I. units (second, meters, Newtons, ...)
If the header above contains a line with 'inDegrees', this indicates whether rotational values are in degrees (yes) or radians (no).

endheader
time	pelvis_tilt	pelvis_list	pelvis_rotation	pelvis_tx	pelvis_ty	pelvis_tz	hip_flexion_r	hip_adduction_r	hip_rotation_r	knee_angle_r	knee_angle_r_beta	ankle_angle_r	subtalar_angle_r	mtp_angle_r	hip_flexion_l	hip_adduction_l	hip_rotation_l	knee_angle_l	knee_angle_l_beta	ankle_angle_l	subtalar_angle_l	mtp_angle_l	lumbar_extension	lumbar_bending	lumbar_rotation	arm_flex_r	arm_add_r	arm_rot_r	elbow_flex_r	pro_sup_r	arm_flex_l	arm_add_l	arm_rot_l	elbow_flex_l	pro_sup_l
      0.00000000	     -0.22567315	      2.69372160	      8.99241714	     -0.16722579	      0.86440200	     -0.25024254	     26.30106696	     -4.45081365	     -0.23676081	      9.09809232	      0.15879167	     -0.62524465	    -15.17843176	     -4.32397939	    -19.58733458	     -2.56698616	     -3.03563390	     21.02286674	      0.36691824	      5.51624664	     17.40415340	     -4.32397939	    -15.13165546	     -8.02015561	    -10.57753374	      2.30235891	    -13.07515225	     -4.94103556	     35.24275448	     96.26141857	      8.71741809	     -6.83307618	      7.50776996	     34.56389523	     84.86569957
      0.01000000	     -0.07544510	      1.96928537	      8.84106088	     -0.15257453	      0.86264447	     -0.24844969	     26.73057982	     -3.44204623	     -0.67435607	     11.46541285	      0.20010920	     -1.70652723	    -16.02408815	     -4.36480776	    -19.69338647	     -3.62019802	     -3.50188089	     22.50511393	      0.39278834	      4.27426371	     16.80323454	     -4.36480776	    -14.95744826	     -6.60462748	    -10.07076092	      2.76155389	    -13.25564874	     -4.95469283	     35.07419279	     96.13254692	      8.21326423	     -6.61914930	      7.49423737	     33.90630307	     85.06252844
      0.02000000	     -0.01060951	      1.25748059	      8.62220567	     -0.13799533	      0.86088797	     -0.24653681	     27.26962312	     -2.42456087	     -0.89536788	     13.88854992	      0.24240092	     -2.72535256	    -17.01420608	     -4.40163548	    -19.67023057	     -4.59706153	     -3.86067617	     24.04422416	      0.41965088	      2.87620062	     16.08562958	     -4.40163548	    -14.68057056	     -5.24685199	     -9.51250496	      3.24359517	    -13.40478939	     -4.99204557	     34.84282191	     96.00941675	      7.72201753	     -6.38212967	      7.44691908	     33.16405093	     85.20483497
      0.03000000	     -0.15574993	      0.52809183	      8.29442320	     -0.12359175	      0.85928155	     -0.24443785	     27.87776778	     -1.24369419	     -0.19676047	     16.04061546	      0.27996155	     -4.93489316	    -19.94927603	     -5.51702168	    -19.30251213	     -5.46382762	     -4.05219709	     25.72695491	      0.44902007	      0.93848127	     14.79641301	     -5.51702168	    -14.17674552	     -3.94194263	     -8.85005914	      3.78545270	    -13.55931157	     -4.61499591	     34.47784936	     93.78658335	      7.28899062	     -6.09550212	      7.01870009	     31.66110323	     89.97371715
      0.04000000	      0.03109558	     -0.29932677	      7.93430710	     -0.10926195	      0.85848947	     -0.24239606	     28.18123019	     -0.05178939	     -0.45489031	     18.45096132	      0.32203003	     -5.00436367	    -20.49524636	     -5.54190986	    -19.12475448	     -6.53941850	     -4.60393272	     27.66453141	      0.48283716	     -0.82824414	     13.89523788	     -5.54190986	    -14.11407754	     -2.47345781	     -8.15345930	      4.43964203	    -13.64490698	     -4.68224417	     34.00948900	     93.75578885	      6.87583215	     -5.81287668	      6.92223309	     30.85752376	     89.87079077
      0.05000000	      0.14483733	     -1.14151360	      7.51136977	     -0.09519703	      0.85817926	     -0.24027873	     28.42122876	      1.18155552	     -0.53523640	     20.66565047	      0.36068364	     -4.80331473	    -21.01440818	     -5.56527474	    -18.65148422	     -7.58189673	     -5.11118636	     29.89195869	      0.52171310	     -3.07834557	     12.69290974	     -5.56527474	    -14.00219781	     -1.02634955	     -7.42356734	      5.19740080	    -13.65243852	     -4.71525877	     33.33866560	     93.71022382	      6.53728738	     -5.50338857	      6.82518526	     29.85077124	     89.73651495
